<svg width="16" height="16" viewBox="0 0 16 16" fill="none" xmlns="http://www.w3.org/2000/svg">
<path d="M15 2H7V4H13.7L12.3 9H4V1C4 0.4 3.6 0 3 0H0V2H2V10C2 10.6 2.4 11 3 11H13C13.4 11 13.8 10.7 14 10.3L16 3.3C16 3 16 2 15 2Z" fill="#FF9500"/>
<path d="M3 16C4.10457 16 5 15.1046 5 14C5 12.8954 4.10457 12 3 12C1.89543 12 1 12.8954 1 14C1 15.1046 1.89543 16 3 16Z" fill="#FF9500"/>
<path d="M13 16C14.1046 16 15 15.1046 15 14C15 12.8954 14.1046 12 13 12C11.8954 12 11 12.8954 11 14C11 15.1046 11.8954 16 13 16Z" fill="#FF9500"/>
</svg>
