<svg width="17" height="16" viewBox="0 0 17 16" fill="none" xmlns="http://www.w3.org/2000/svg">
<path d="M16.5 8.04801C16.5003 6.5191 16.0625 5.0221 15.2385 3.73429C14.4144 2.44647 13.2385 1.42177 11.8501 0.781514C10.4617 0.141257 8.91893 -0.0877379 7.40442 0.121642C5.88991 0.331023 4.46712 0.970009 3.30451 1.96294C2.1419 2.95587 1.28816 4.26117 0.844396 5.72426C0.400627 7.18736 0.385409 8.74698 0.800544 10.2185C1.21568 11.6899 2.04378 13.0116 3.18679 14.0271C4.32981 15.0425 5.73986 15.7091 7.25 15.948V10.36H5.219V8.04801H7.25V6.28501C7.20627 5.87346 7.2536 5.45732 7.38863 5.0661C7.52366 4.67488 7.74309 4.31815 8.03136 4.02119C8.31964 3.72423 8.6697 3.49432 9.05674 3.34774C9.44379 3.20116 9.85833 3.14151 10.271 3.17301C10.871 3.18089 11.4696 3.23303 12.062 3.32901V5.30001H11.054C10.8823 5.27756 10.7077 5.294 10.5432 5.34813C10.3787 5.40225 10.2285 5.49267 10.1037 5.6127C9.97887 5.73272 9.88263 5.87928 9.8221 6.04153C9.76157 6.20377 9.73829 6.37755 9.754 6.55001V8.05001H11.973L11.618 10.362H9.75V15.953C11.6322 15.6553 13.3464 14.6954 14.5838 13.2462C15.8213 11.797 16.5008 9.95365 16.5 8.04801Z" fill="white"/>
</svg>
