<svg width="12" height="7" viewBox="0 0 12 7" fill="none" xmlns="http://www.w3.org/2000/svg">
<path d="M6.38584 0.159753L11.8402 5.6143C12.0533 5.82728 12.0533 6.17266 11.8402 6.38568C11.6272 6.59866 11.2818 6.59866 11.0688 6.38564L6.0001 1.31681L0.931114 6.38568C0.718096 6.59866 0.372751 6.59866 0.159733 6.38564C0.0532236 6.27917 -1.33692e-05 6.13957 -1.33753e-05 5.99997C-1.33814e-05 5.86037 0.0532236 5.72077 0.159769 5.61426L5.61446 0.159753C5.71675 0.0574253 5.85548 -2.92953e-05 6.00013 -2.93016e-05C6.14479 -2.9308e-05 6.28355 0.0574253 6.38584 0.159753Z" fill="#EE1C23"/>
</svg>
