<svg width="16" height="17" viewBox="0 0 16 17" fill="none" xmlns="http://www.w3.org/2000/svg">
<path fill-rule="evenodd" clip-rule="evenodd" d="M11.0788 7.7331C11.0541 8.02069 10.881 8.28431 10.5842 8.40414C10.1638 8.59586 9.64451 8.4281 9.44668 7.99672C9.24884 7.58931 9.42195 7.08603 9.86708 6.89431C10.1144 6.79845 10.3617 6.79845 10.5842 6.89431L10.6337 6.91827H10.6584C11.5981 7.44552 12.3895 8.4281 12.8594 9.57845C13.4034 9.29086 13.8733 8.93138 14.2689 8.47603C14.3926 8.33224 14.5162 8.18845 14.6646 8.06862C14.7883 7.94879 14.8377 7.94879 14.8872 7.92483C13.898 6.17534 11.0541 5.12086 8.97682 5.48034C9.05101 5.62414 9.12519 5.76793 9.17465 5.91172C9.22411 6.00758 9.22411 6.12741 9.22411 6.2712C9.17465 6.72655 8.77898 7.06207 8.30912 7.01414C7.83926 6.9662 7.49305 6.58276 7.54251 6.12741C7.56723 5.86379 7.71561 5.6481 7.91345 5.52827C8.06183 5.43241 8.2102 5.36052 8.38331 5.28862C8.01237 4.90517 7.59196 4.52172 7.14683 4.21017C6.52859 4.83327 6.034 5.55224 5.78671 6.29517C6.05873 6.17534 6.38022 6.19931 6.62751 6.36707C6.99846 6.63069 7.09737 7.13396 6.82535 7.51741C6.55332 7.90086 6.034 7.97276 5.63833 7.70914C5.39104 7.54138 5.26739 7.25379 5.29212 6.99017C5.29212 5.93569 5.78671 4.80931 6.55332 3.85069C6.034 3.53913 5.46523 3.32344 4.87172 3.22758C4.67388 3.20362 4.47604 3.15569 4.30294 3.10775C4.12983 3.05982 4.1051 3.01189 4.05564 2.98793C2.99227 4.68948 3.46214 7.63724 4.82226 9.195C4.89645 9.07517 4.97064 8.97931 5.06955 8.85948C5.09428 8.83552 5.09428 8.83552 5.11901 8.81155C5.1932 8.71569 5.29212 8.64379 5.41576 8.59586C5.83617 8.40414 6.35549 8.5719 6.55332 9.00328C6.75116 9.41069 6.57805 9.91397 6.13292 10.1057C5.88563 10.2255 5.63833 10.2016 5.41576 10.1057L5.36631 10.0817L5.34158 10.0578C5.21793 9.98586 5.09428 9.91397 4.97063 9.8181C4.82226 10.3214 4.67388 10.8486 4.62442 11.3998C5.48995 11.6155 6.38022 11.6634 7.14683 11.4957C6.89954 11.3279 6.75116 11.0403 6.77589 10.7528C6.82535 10.2974 7.22102 9.9619 7.69088 10.0098C8.16074 10.0578 8.50696 10.4412 8.4575 10.8966C8.43277 11.1602 8.28439 11.3759 8.08655 11.4957C7.1221 12.0709 5.83617 12.2386 4.55023 12.0709C4.55023 12.67 4.62442 13.2691 4.82226 13.8203C4.92118 13.9402 4.97063 14.1319 5.02009 14.2997C5.06955 14.4674 5.04482 14.5153 5.04482 14.5633C7.09737 14.6112 9.47141 12.7419 10.1638 10.8007C10.0155 10.8007 9.84235 10.7767 9.69397 10.7528C9.57033 10.7288 9.47141 10.6809 9.34776 10.609C8.97682 10.3453 8.8779 9.84207 9.14992 9.45862C9.42195 9.07517 9.94127 9.00328 10.3369 9.2669C10.5595 9.41069 10.6832 9.65035 10.6832 9.89C10.6832 9.93793 10.6832 9.9619 10.6832 10.0098C10.6832 10.1536 10.6832 10.2734 10.6584 10.4172C11.1777 10.2974 11.7218 10.1297 12.2411 9.91397C12.0185 9.07517 11.5981 8.28431 11.0788 7.7331ZM13.0572 10.1297C13.5518 11.6395 13.5023 13.341 12.6368 14.6831C12.5131 14.8988 12.4142 14.9707 12.3895 15.0186C12.3153 14.9707 12.2411 14.9228 12.068 14.8748C11.1283 14.6352 10.0402 14.2038 9.07574 13.5807C7.96291 14.755 6.42968 15.5459 4.82226 15.4979C4.57496 15.4979 4.45131 15.474 4.40186 15.45C4.40186 15.3781 4.40186 15.2822 4.3524 15.1145C4.1051 14.1798 3.932 13.0535 4.00618 11.951C2.42349 11.5916 0.914993 10.7048 0.173108 9.31483C0.0494604 9.09914 0.0247297 9.00328 0 8.93138C0.0741882 8.88345 0.148378 8.85948 0.296756 8.73966C0.989182 8.06862 1.90417 7.34965 2.94281 6.87034C2.44822 5.36051 2.49768 3.65896 3.36322 2.31689C3.48686 2.1012 3.58578 2.02931 3.61051 1.98137C3.6847 2.02931 3.75889 2.07724 3.93199 2.12517C4.87172 2.36482 5.95982 2.7962 6.92427 3.41931C8.0371 2.245 9.57033 1.45413 11.1777 1.50206C11.425 1.50206 11.5487 1.52603 11.5981 1.54999C11.5981 1.62189 11.5981 1.71775 11.6476 1.88551C11.8949 2.82017 12.068 3.94655 11.9938 5.04896C13.5765 5.40845 15.085 6.29517 15.8269 7.68517C15.9505 7.90086 15.9753 7.99672 16 8.06862C15.9258 8.11655 15.8516 8.14052 15.7032 8.26034C15.0108 8.93138 14.0958 9.62638 13.0572 10.1297ZM11.425 4.92914C10.4853 4.80931 9.57032 4.85724 8.75425 5.12086C8.43277 4.64155 8.01236 4.1862 7.51777 3.82672C8.53168 2.96396 9.76816 2.38879 10.9304 2.41276C10.9304 2.46069 10.9057 2.50862 10.9552 2.67638C11.0046 2.84413 11.0541 3.03586 11.1283 3.20362C11.3509 3.73086 11.4498 4.33 11.425 4.92914ZM10.609 10.8007C11.2025 10.7767 11.796 10.6329 12.3895 10.4172C12.6615 11.6874 12.5379 13.0535 11.9444 14.0121C11.8949 13.9881 11.8702 13.9641 11.6971 13.8922C11.524 13.8443 11.3261 13.7964 11.1283 13.7724C10.5348 13.6766 9.966 13.4369 9.44668 13.1493C10.0155 12.4303 10.4359 11.6155 10.609 10.8007ZM3.11592 7.34965C3.46213 8.18845 3.98145 8.95535 4.62442 9.50655C4.3524 10.0338 4.17929 10.609 4.08037 11.2081C2.81917 10.8007 1.65688 10.0338 1.11283 9.02724C1.16229 9.00328 1.21175 8.97931 1.33539 8.88345C1.45904 8.76362 1.60742 8.61983 1.73107 8.47603C2.10201 8.02069 2.57187 7.66121 3.11592 7.34965Z" fill="#D21414"/>
</svg>
